<svg xmlns="http://www.w3.org/2000/svg" xmlns:xlink="http://www.w3.org/1999/xlink" width="500" zoomAndPan="magnify" viewBox="0 0 375 149.999998" height="200" preserveAspectRatio="xMidYMid meet" version="1.0"><defs><clipPath id="102ca760f9"><path d="M 21 11 L 140 11 L 140 98 L 21 98 Z M 21 11 " clip-rule="nonzero"/></clipPath><clipPath id="7557b46dc9"><path d="M 15 47.050781 L 125.34375 5.953125 L 146.285156 62.179688 L 35.941406 103.277344 Z M 15 47.050781 " clip-rule="nonzero"/></clipPath><clipPath id="c981751d0a"><path d="M 15 47.050781 L 125.34375 5.953125 L 146.285156 62.179688 L 35.941406 103.277344 Z M 15 47.050781 " clip-rule="nonzero"/></clipPath><clipPath id="bd8e6ec1bf"><path d="M 15 47.050781 L 125.34375 5.953125 L 146.285156 62.179688 L 35.941406 103.277344 Z M 15 47.050781 " clip-rule="nonzero"/></clipPath><clipPath id="32a80aa66e"><path d="M 128 70 L 246 70 L 246 137 L 128 137 Z M 128 70 " clip-rule="nonzero"/></clipPath><clipPath id="5131b8fc18"><path d="M 131.46875 68.074219 L 248.738281 78.710938 L 243.316406 138.464844 L 126.050781 127.828125 Z M 131.46875 68.074219 " clip-rule="nonzero"/></clipPath><clipPath id="e74d21a3c4"><path d="M 131.46875 68.074219 L 248.738281 78.710938 L 243.316406 138.464844 L 126.050781 127.828125 Z M 131.46875 68.074219 " clip-rule="nonzero"/></clipPath><clipPath id="1291ff49cf"><path d="M 131.46875 68.074219 L 248.738281 78.710938 L 243.316406 138.464844 L 126.050781 127.828125 Z M 131.46875 68.074219 " clip-rule="nonzero"/></clipPath><clipPath id="7a77d42759"><path d="M 198 20.355469 L 264.878906 20.355469 L 264.878906 54.855469 L 198 54.855469 Z M 198 20.355469 " clip-rule="nonzero"/></clipPath></defs><g clip-path="url(#102ca760f9)"><g clip-path="url(#7557b46dc9)"><g clip-path="url(#c981751d0a)"><g clip-path="url(#bd8e6ec1bf)"><path fill="#f4f4f4" d="M 131.210938 27.078125 C 130.761719 23.238281 129.027344 19.632812 126.195312 16.648438 C 123.34375 13.648438 119.476562 11.914062 115.304688 11.761719 C 110.925781 11.605469 106.878906 12.855469 103.605469 15.367188 C 100.570312 17.703125 98.371094 21.042969 97.417969 24.773438 C 97.28125 25.300781 96.894531 25.730469 96.375 25.921875 L 49.988281 43.199219 C 49.46875 43.394531 48.894531 43.324219 48.445312 43.011719 C 45.285156 40.816406 41.4375 39.726562 37.613281 39.949219 C 33.492188 40.1875 29.617188 41.890625 26.40625 44.875 C 23.347656 47.714844 21.558594 51.558594 21.367188 55.691406 C 21.175781 59.804688 22.222656 63.667969 24.394531 66.863281 C 26.191406 69.511719 28.652344 71.574219 31.554688 72.882812 C 28.570312 79.308594 29.808594 86.804688 34.863281 92.300781 C 37.71875 95.40625 41.757812 97.277344 45.949219 97.433594 C 50.773438 97.613281 55.292969 96.039062 58.683594 93 C 61.886719 90.125 63.890625 86.175781 64.324219 81.878906 C 64.386719 81.246094 64.816406 80.695312 65.414062 80.472656 L 109.089844 64.203125 C 109.6875 63.980469 110.375 64.117188 110.835938 64.554688 C 113.972656 67.523438 118.070312 69.199219 122.375 69.277344 C 124.523438 69.316406 126.652344 68.941406 128.667969 68.191406 C 130.921875 67.351562 133.042969 66.039062 134.90625 64.300781 C 137.972656 61.441406 139.808594 57.382812 139.933594 53.167969 C 140.160156 45.703125 136.191406 39.222656 129.734375 36.316406 C 131.074219 33.425781 131.585938 30.257812 131.210938 27.078125 Z M 133.246094 44.683594 C 134.878906 47.042969 135.691406 49.929688 135.597656 53.03125 C 135.503906 56.09375 134.175781 59.042969 131.949219 61.121094 C 129.207031 63.675781 125.921875 64.996094 122.449219 64.933594 C 119.226562 64.875 116.160156 63.621094 113.8125 61.398438 C 112.15625 59.835938 109.707031 59.335938 107.574219 60.132812 L 63.898438 76.402344 C 61.761719 77.195312 60.234375 79.175781 60.007812 81.4375 C 59.683594 84.65625 58.183594 87.609375 55.785156 89.761719 C 53.203125 92.082031 49.855469 93.230469 46.105469 93.09375 C 43.066406 92.980469 40.128906 91.621094 38.054688 89.363281 C 35.957031 87.078125 34.683594 84.363281 34.375 81.511719 C 34.085938 78.855469 34.621094 76.210938 35.925781 73.859375 C 36.382812 73.039062 36.457031 72.0625 36.128906 71.179688 C 35.800781 70.296875 35.105469 69.609375 34.222656 69.285156 C 31.660156 68.347656 29.503906 66.667969 27.980469 64.421875 C 26.34375 62.011719 25.554688 59.0625 25.703125 55.898438 C 25.839844 52.953125 27.171875 50.09375 29.359375 48.0625 C 34.902344 42.910156 41.699219 43.605469 45.976562 46.582031 C 47.589844 47.703125 49.65625 47.960938 51.503906 47.273438 L 97.890625 29.992188 C 99.738281 29.304688 101.132812 27.757812 101.621094 25.855469 C 102.910156 20.808594 107.597656 15.835938 115.15625 16.105469 C 118.140625 16.210938 121.019531 17.5 123.050781 19.640625 C 125.230469 21.9375 126.5625 24.683594 126.902344 27.578125 C 127.21875 30.269531 126.6875 32.953125 125.363281 35.339844 C 124.90625 36.160156 124.832031 37.136719 125.160156 38.019531 C 125.488281 38.898438 126.183594 39.589844 127.066406 39.914062 C 129.589844 40.835938 131.726562 42.488281 133.246094 44.683594 Z M 133.246094 44.683594 " fill-opacity="1" fill-rule="nonzero"/></g></g></g></g><g clip-path="url(#32a80aa66e)"><g clip-path="url(#5131b8fc18)"><g clip-path="url(#e74d21a3c4)"><g clip-path="url(#1291ff49cf)"><path fill="#f4f4f4" d="M 244.898438 100.296875 C 246.152344 96.640625 246.144531 92.640625 244.878906 88.722656 C 243.605469 84.785156 240.871094 81.550781 237.175781 79.613281 C 233.292969 77.578125 229.105469 76.953125 225.066406 77.804688 C 221.316406 78.597656 217.894531 80.65625 215.417969 83.609375 C 215.070312 84.027344 214.535156 84.246094 213.980469 84.195312 L 164.683594 79.722656 C 164.132812 79.671875 163.644531 79.363281 163.375 78.890625 C 161.476562 75.539062 158.476562 72.894531 154.933594 71.441406 C 151.113281 69.878906 146.882812 69.738281 142.695312 71.042969 C 138.710938 72.28125 135.4375 74.972656 133.476562 78.617188 C 131.527344 82.242188 130.800781 86.179688 131.375 90 C 131.851562 93.164062 133.179688 96.085938 135.234375 98.523438 C 129.765625 103.027344 127.640625 110.320312 129.820312 117.464844 C 131.054688 121.496094 133.886719 124.929688 137.601562 126.882812 C 141.871094 129.128906 146.628906 129.664062 150.996094 128.390625 C 155.132812 127.183594 158.644531 124.488281 160.890625 120.800781 C 161.222656 120.257812 161.847656 119.945312 162.484375 120.003906 L 208.898438 124.214844 C 209.535156 124.269531 210.09375 124.691406 210.320312 125.285156 C 211.867188 129.316406 214.839844 132.597656 218.6875 134.53125 C 220.609375 135.492188 222.6875 136.074219 224.832031 136.269531 C 227.226562 136.488281 229.707031 136.21875 232.136719 135.460938 C 236.140625 134.207031 239.546875 131.339844 241.484375 127.59375 C 244.914062 120.960938 244.140625 113.402344 239.570312 107.988281 C 242.03125 105.960938 243.859375 103.324219 244.898438 100.296875 Z M 239.121094 117.054688 C 239.574219 119.886719 239.058594 122.839844 237.632812 125.597656 C 236.226562 128.320312 233.75 130.402344 230.847656 131.3125 C 227.265625 132.433594 223.734375 132.203125 220.632812 130.644531 C 217.75 129.199219 215.527344 126.742188 214.371094 123.722656 C 213.554688 121.597656 211.5625 120.09375 209.292969 119.886719 L 162.875 115.675781 C 160.605469 115.46875 158.375 116.59375 157.191406 118.535156 C 155.507812 121.296875 152.878906 123.316406 149.785156 124.21875 C 146.453125 125.191406 142.9375 124.78125 139.617188 123.035156 C 136.921875 121.621094 134.863281 119.125 133.96875 116.191406 C 133.0625 113.226562 133.089844 110.226562 134.042969 107.523438 C 134.929688 105.003906 136.558594 102.847656 138.753906 101.292969 C 139.519531 100.75 140.007812 99.898438 140.09375 98.964844 C 140.175781 98.027344 139.847656 97.105469 139.195312 96.429688 C 137.289062 94.476562 136.070312 92.03125 135.664062 89.347656 C 135.230469 86.464844 135.792969 83.46875 137.296875 80.679688 C 138.691406 78.078125 141.128906 76.078125 143.980469 75.191406 C 151.203125 72.941406 157.035156 76.507812 159.605469 81.039062 C 160.574219 82.746094 162.328125 83.871094 164.292969 84.050781 L 213.589844 88.523438 C 215.554688 88.703125 217.480469 87.910156 218.742188 86.402344 C 222.085938 82.410156 228.460938 79.949219 235.164062 83.460938 C 237.808594 84.847656 239.84375 87.253906 240.753906 90.0625 C 241.726562 93.078125 241.742188 96.128906 240.796875 98.886719 C 239.917969 101.449219 238.277344 103.640625 236.050781 105.21875 C 235.285156 105.761719 234.796875 106.609375 234.710938 107.546875 C 234.625 108.484375 234.953125 109.40625 235.609375 110.078125 C 237.488281 112.003906 238.699219 114.417969 239.121094 117.054688 Z M 239.121094 117.054688 " fill-opacity="1" fill-rule="nonzero"/></g></g></g></g><g clip-path="url(#7a77d42759)"><path fill="#f4f4f4" d="M 263.804688 32.917969 C 264.332031 30.757812 264.121094 28.46875 263.195312 26.289062 C 262.265625 24.101562 260.535156 22.390625 258.324219 21.472656 C 256 20.507812 253.578125 20.371094 251.316406 21.066406 C 249.21875 21.714844 247.371094 23.074219 246.109375 24.894531 C 245.933594 25.148438 245.636719 25.304688 245.320312 25.304688 L 216.945312 25.304688 C 216.628906 25.304688 216.332031 25.148438 216.152344 24.894531 C 214.894531 23.074219 213.046875 21.714844 210.949219 21.066406 C 208.6875 20.371094 206.265625 20.507812 203.941406 21.472656 C 201.730469 22.390625 200 24.101562 199.070312 26.289062 C 198.144531 28.46875 197.933594 30.757812 198.460938 32.917969 C 198.898438 34.707031 199.804688 36.308594 201.105469 37.597656 C 198.214844 40.460938 197.378906 44.75 198.996094 48.726562 C 199.90625 50.972656 201.703125 52.792969 203.925781 53.71875 C 206.480469 54.78125 209.222656 54.839844 211.652344 53.882812 C 213.949219 52.976562 215.816406 51.25 216.90625 49.023438 C 217.066406 48.695312 217.40625 48.484375 217.773438 48.484375 L 244.492188 48.484375 C 244.859375 48.484375 245.199219 48.695312 245.359375 49.023438 C 246.449219 51.25 248.316406 52.976562 250.613281 53.882812 C 251.761719 54.335938 252.976562 54.5625 254.210938 54.5625 C 255.589844 54.5625 256.992188 54.277344 258.339844 53.71875 C 260.5625 52.792969 262.355469 50.972656 263.269531 48.726562 C 264.882812 44.75 264.050781 40.460938 261.160156 37.597656 C 262.460938 36.308594 263.367188 34.707031 263.804688 32.917969 Z M 261.375 42.8125 C 261.777344 44.414062 261.636719 46.132812 260.96875 47.78125 C 260.304688 49.414062 259 50.738281 257.386719 51.410156 C 255.402344 52.238281 253.375 52.289062 251.523438 51.558594 C 249.804688 50.878906 248.40625 49.585938 247.589844 47.917969 C 247.015625 46.746094 245.796875 45.984375 244.492188 45.984375 L 217.773438 45.984375 C 216.46875 45.984375 215.25 46.746094 214.675781 47.917969 C 213.859375 49.585938 212.460938 50.878906 210.742188 51.558594 C 208.890625 52.289062 206.863281 52.238281 204.875 51.410156 C 203.265625 50.738281 201.960938 49.414062 201.296875 47.78125 C 200.628906 46.132812 200.488281 44.414062 200.890625 42.8125 C 201.265625 41.324219 202.085938 40.007812 203.257812 39.003906 C 203.667969 38.652344 203.902344 38.140625 203.902344 37.597656 C 203.902344 37.058594 203.667969 36.546875 203.257812 36.195312 C 202.070312 35.175781 201.246094 33.835938 200.875 32.324219 C 200.480469 30.695312 200.644531 28.949219 201.355469 27.273438 C 202.019531 25.710938 203.308594 24.4375 204.890625 23.78125 C 208.898438 22.121094 212.410156 23.859375 214.113281 26.320312 C 214.753906 27.246094 215.8125 27.800781 216.945312 27.800781 L 245.320312 27.800781 C 246.453125 27.800781 247.511719 27.246094 248.152344 26.320312 C 249.855469 23.859375 253.367188 22.121094 257.375 23.78125 C 258.957031 24.4375 260.246094 25.710938 260.90625 27.273438 C 261.621094 28.949219 261.785156 30.695312 261.390625 32.324219 C 261.019531 33.835938 260.195312 35.175781 259.007812 36.195312 C 258.597656 36.546875 258.363281 37.058594 258.363281 37.597656 C 258.363281 38.140625 258.597656 38.652344 259.007812 39.003906 C 260.179688 40.007812 260.996094 41.324219 261.375 42.8125 Z M 261.375 42.8125 " fill-opacity="1" fill-rule="nonzero"/></g></svg>