<svg xmlns="http://www.w3.org/2000/svg" xmlns:xlink="http://www.w3.org/1999/xlink" width="500" zoomAndPan="magnify" viewBox="0 0 375 149.999998" height="200" preserveAspectRatio="xMidYMid meet" version="1.0"><defs><clipPath id="6f0b874395"><path d="M 92 21 L 251.832031 21 L 251.832031 130 L 92 130 Z M 92 21 " clip-rule="nonzero"/></clipPath></defs><g clip-path="url(#6f0b874395)"><path fill="#f4f4f4" d="M 162.335938 115.332031 C 159.894531 118.554688 155.921875 120.34375 151.917969 120.917969 C 149.726562 121.230469 147.472656 121.222656 145.34375 121.84375 C 140.371094 123.292969 136.769531 127.960938 131.726562 129.152344 C 125.886719 130.535156 119.367188 125.957031 118.683594 119.996094 C 118.152344 115.375 120.636719 110.984375 121.480469 106.410156 C 122.230469 102.347656 121.683594 98.109375 122.632812 94.089844 C 124.757812 85.105469 134.609375 84 141.511719 88.246094 C 144.671875 90.1875 147.480469 92.703125 150.8125 94.339844 C 153.792969 95.804688 157.160156 96.546875 159.847656 98.503906 C 164.957031 102.21875 166.148438 110.300781 162.335938 115.332031 Z M 113.664062 101.230469 C 113.097656 100.097656 112.347656 99.09375 111.417969 98.226562 C 107.65625 94.5 100.777344 91.054688 95.292969 92.160156 C 88.324219 93.566406 96.277344 104.199219 98.964844 106.339844 C 101.832031 108.617188 105.179688 110.191406 108.496094 111.746094 C 109.347656 112.148438 110.246094 112.558594 111.1875 112.519531 C 112.769531 112.449219 114.0625 111.085938 114.53125 109.574219 C 115.003906 108.0625 114.824219 106.433594 114.59375 104.867188 C 114.460938 103.609375 114.152344 102.398438 113.664062 101.230469 Z M 118.101562 76.425781 C 116.683594 73.441406 114.058594 71.128906 111.09375 69.671875 C 109.078125 68.679688 106.75 68.050781 104.582031 68.644531 C 94.359375 71.457031 104.398438 83.425781 108.605469 86.632812 C 110.578125 88.140625 113.203125 89.386719 115.476562 88.386719 C 116.570312 87.847656 117.402344 87.042969 117.96875 85.964844 C 119.617188 83.097656 119.523438 79.414062 118.101562 76.425781 Z M 123.238281 75.578125 C 123.660156 76.179688 124.164062 76.703125 124.746094 77.148438 C 125.332031 77.59375 125.96875 77.9375 126.660156 78.1875 C 127.351562 78.433594 128.066406 78.570312 128.800781 78.59375 C 129.535156 78.621094 130.253906 78.53125 130.960938 78.332031 C 131.667969 78.136719 132.332031 77.832031 132.945312 77.429688 C 133.558594 77.027344 134.09375 76.539062 134.558594 75.96875 C 135.019531 75.394531 135.382812 74.769531 135.648438 74.082031 C 135.917969 73.398438 136.074219 72.691406 136.121094 71.957031 C 136.148438 70.675781 135.988281 69.417969 135.640625 68.183594 C 135.132812 66.085938 134.5 63.992188 133.386719 62.144531 C 132.273438 60.296875 130.632812 58.699219 128.597656 57.992188 C 126.949219 57.464844 125.292969 57.425781 123.625 57.882812 C 116.089844 59.800781 120.003906 68.21875 121.976562 73.089844 C 122.300781 73.964844 122.722656 74.796875 123.238281 75.578125 Z M 142.671875 81.113281 C 143.617188 82.566406 145.050781 83.625 146.464844 84.628906 C 147.890625 85.644531 149.359375 86.652344 151.027344 87.199219 C 151.40625 87.347656 151.800781 87.398438 152.203125 87.355469 C 153.277344 87.167969 153.753906 85.917969 153.960938 84.847656 C 154.589844 81.597656 154.558594 78.253906 154.445312 74.945312 C 154.332031 71.710938 154.082031 68.304688 152.289062 65.605469 C 150.167969 62.402344 145.859375 61.195312 142.910156 63.886719 C 139.652344 66.859375 140.484375 72.34375 141.085938 76.296875 C 141.34375 77.980469 141.738281 79.6875 142.671875 81.113281 Z M 234.761719 60.449219 C 231.5 55.402344 227.882812 50.453125 223.058594 46.875 C 220.519531 44.992188 217.476562 43.476562 214.328125 43.757812 C 210.214844 44.128906 207.023438 47.40625 204.382812 50.585938 C 201.007812 54.652344 197.875 58.898438 194.984375 63.320312 C 192.550781 67.046875 190.222656 71.183594 190.453125 75.625 C 190.566406 77.8125 191.402344 80.074219 193.152344 81.394531 C 199.015625 85.824219 205.097656 78.277344 210.890625 78.261719 C 213.152344 78.253906 215.121094 79.535156 217.300781 80.007812 C 221.121094 80.839844 225.445312 80.644531 229.324219 80.449219 C 231.433594 80.339844 233.625 80.113281 235.414062 78.992188 C 238.347656 77.15625 239.472656 73.273438 238.96875 69.851562 C 238.464844 66.425781 236.640625 63.355469 234.761719 60.449219 Z M 194.820312 47.402344 C 194.351562 45.695312 193.796875 44.023438 193.148438 42.378906 C 192.445312 40.589844 191.574219 38.765625 190.039062 37.605469 C 188.507812 36.449219 186.132812 36.191406 184.738281 37.515625 C 184.082031 38.144531 183.730469 39.023438 183.4375 39.886719 C 182.25 43.40625 181.792969 47.316406 183.050781 50.8125 C 184.125 53.796875 187.582031 57.9375 191.160156 56.777344 C 195.34375 55.414062 195.800781 50.988281 194.820312 47.402344 Z M 204.199219 43.183594 C 206.996094 44.949219 210.996094 41.757812 212.1875 39.335938 C 213.902344 35.855469 214.03125 31.726562 213.042969 27.972656 C 212.59375 26.261719 211.859375 24.523438 210.453125 23.449219 C 209.859375 23.007812 209.207031 22.683594 208.496094 22.476562 C 204.980469 21.394531 202.4375 22.816406 201.214844 26.109375 C 201.183594 26.191406 201.15625 26.273438 201.125 26.359375 C 200.34375 28.714844 200.039062 31.132812 200.222656 33.613281 C 200.402344 36.089844 201.050781 38.4375 202.167969 40.660156 C 202.664062 41.632812 203.273438 42.601562 204.199219 43.183594 Z M 231.566406 42.660156 C 232.019531 42.34375 232.40625 41.964844 232.730469 41.519531 C 235.34375 38.167969 236.023438 33.679688 235.867188 29.433594 C 235.808594 27.757812 235.613281 26.039062 234.816406 24.5625 C 232.046875 19.4375 226.839844 21.710938 224.140625 25.441406 C 224.050781 25.566406 223.964844 25.691406 223.878906 25.816406 C 222.433594 28.003906 221.78125 30.613281 221.359375 33.199219 C 221.09375 34.519531 221.03125 35.847656 221.171875 37.1875 C 221.828125 41.683594 227.425781 45.347656 231.566406 42.660156 Z M 250.253906 40.261719 C 249.917969 39.75 249.460938 39.394531 248.886719 39.191406 C 247.878906 38.902344 246.859375 39.53125 246.007812 40.144531 C 242.574219 42.605469 238.863281 45.417969 236.609375 49.066406 C 234.882812 51.863281 236.441406 56.351562 239.359375 57.996094 C 240.878906 58.851562 242.777344 58.738281 244.4375 58.207031 C 245.65625 57.832031 246.761719 57.25 247.761719 56.457031 C 248.757812 55.660156 249.570312 54.710938 250.207031 53.609375 C 251.273438 51.664062 251.570312 49.394531 251.683594 47.183594 C 251.8125 44.78125 251.691406 42.191406 250.253906 40.261719 Z M 250.253906 40.261719 " fill-opacity="1" fill-rule="nonzero"/></g></svg>