<svg xmlns="http://www.w3.org/2000/svg" xmlns:xlink="http://www.w3.org/1999/xlink" width="500" zoomAndPan="magnify" viewBox="0 0 375 149.999998" height="200" preserveAspectRatio="xMidYMid meet" version="1.0"><defs><clipPath id="c13615bb21"><path d="M 207 25 L 257 25 L 257 75 L 207 75 Z M 207 25 " clip-rule="nonzero"/></clipPath><clipPath id="9498ccbb39"><path d="M 331.761719 -32.363281 L 387.933594 92.042969 L 173.984375 188.648438 L 117.8125 64.242188 Z M 331.761719 -32.363281 " clip-rule="nonzero"/></clipPath><clipPath id="a780ae1d01"><path d="M 331.761719 -32.363281 L 387.933594 92.042969 L 173.984375 188.648438 L 117.8125 64.242188 Z M 331.761719 -32.363281 " clip-rule="nonzero"/></clipPath><clipPath id="2898175caf"><path d="M 315 42 L 365 42 L 365 92 L 315 92 Z M 315 42 " clip-rule="nonzero"/></clipPath><clipPath id="5eb5581cb0"><path d="M 331.761719 -32.363281 L 387.933594 92.042969 L 173.984375 188.648438 L 117.8125 64.242188 Z M 331.761719 -32.363281 " clip-rule="nonzero"/></clipPath><clipPath id="442eb944de"><path d="M 331.761719 -32.363281 L 387.933594 92.042969 L 173.984375 188.648438 L 117.8125 64.242188 Z M 331.761719 -32.363281 " clip-rule="nonzero"/></clipPath><clipPath id="bccfe0d9ce"><path d="M 251 82 L 301 82 L 301 131 L 251 131 Z M 251 82 " clip-rule="nonzero"/></clipPath><clipPath id="c232cfdfae"><path d="M 331.761719 -32.363281 L 387.933594 92.042969 L 173.984375 188.648438 L 117.8125 64.242188 Z M 331.761719 -32.363281 " clip-rule="nonzero"/></clipPath><clipPath id="6e3ec513fa"><path d="M 331.761719 -32.363281 L 387.933594 92.042969 L 173.984375 188.648438 L 117.8125 64.242188 Z M 331.761719 -32.363281 " clip-rule="nonzero"/></clipPath><clipPath id="0e9d0934e2"><path d="M 144 73 L 194 73 L 194 123 L 144 123 Z M 144 73 " clip-rule="nonzero"/></clipPath><clipPath id="afda64e27c"><path d="M 331.761719 -32.363281 L 387.933594 92.042969 L 173.984375 188.648438 L 117.8125 64.242188 Z M 331.761719 -32.363281 " clip-rule="nonzero"/></clipPath><clipPath id="81be4cf842"><path d="M 331.761719 -32.363281 L 387.933594 92.042969 L 173.984375 188.648438 L 117.8125 64.242188 Z M 331.761719 -32.363281 " clip-rule="nonzero"/></clipPath><clipPath id="a482fe6fc6"><path d="M 47 39 L 83 39 L 83 73 L 47 73 Z M 47 39 " clip-rule="nonzero"/></clipPath><clipPath id="d1c2f3d703"><path d="M 117.769531 -16.484375 L 177.425781 57.769531 L 49.386719 160.644531 L -10.273438 86.390625 Z M 117.769531 -16.484375 " clip-rule="nonzero"/></clipPath><clipPath id="a247a83b84"><path d="M 117.769531 -16.484375 L 177.425781 57.769531 L 49.386719 160.644531 L -10.273438 86.390625 Z M 117.769531 -16.484375 " clip-rule="nonzero"/></clipPath><clipPath id="ca272608c3"><path d="M 123 32 L 159 32 L 159 66 L 123 66 Z M 123 32 " clip-rule="nonzero"/></clipPath><clipPath id="947a1082e0"><path d="M 117.769531 -16.484375 L 177.425781 57.769531 L 49.386719 160.644531 L -10.273438 86.390625 Z M 117.769531 -16.484375 " clip-rule="nonzero"/></clipPath><clipPath id="e4f65d0b5b"><path d="M 117.769531 -16.484375 L 177.425781 57.769531 L 49.386719 160.644531 L -10.273438 86.390625 Z M 117.769531 -16.484375 " clip-rule="nonzero"/></clipPath><clipPath id="c846535d0b"><path d="M 87 69 L 123 69 L 123 104 L 87 104 Z M 87 69 " clip-rule="nonzero"/></clipPath><clipPath id="abba6d9bb7"><path d="M 117.769531 -16.484375 L 177.425781 57.769531 L 49.386719 160.644531 L -10.273438 86.390625 Z M 117.769531 -16.484375 " clip-rule="nonzero"/></clipPath><clipPath id="9b2eba4dcf"><path d="M 117.769531 -16.484375 L 177.425781 57.769531 L 49.386719 160.644531 L -10.273438 86.390625 Z M 117.769531 -16.484375 " clip-rule="nonzero"/></clipPath><clipPath id="65b92878e7"><path d="M 12 82 L 48 82 L 48 117 L 12 117 Z M 12 82 " clip-rule="nonzero"/></clipPath><clipPath id="6dd3dd6987"><path d="M 117.769531 -16.484375 L 177.425781 57.769531 L 49.386719 160.644531 L -10.273438 86.390625 Z M 117.769531 -16.484375 " clip-rule="nonzero"/></clipPath><clipPath id="6f6b052f8f"><path d="M 117.769531 -16.484375 L 177.425781 57.769531 L 49.386719 160.644531 L -10.273438 86.390625 Z M 117.769531 -16.484375 " clip-rule="nonzero"/></clipPath></defs><g clip-path="url(#c13615bb21)"><g clip-path="url(#9498ccbb39)"><g clip-path="url(#a780ae1d01)"><path fill="#ffcc00" d="M 255.445312 59.746094 C 255.453125 59.640625 255.453125 59.539062 255.453125 59.433594 C 255.011719 55.242188 250.726562 52.65625 246.828125 52.058594 C 243.304688 51.332031 238.625 52.558594 237.5625 56.351562 C 237.417969 56.902344 237.425781 57.484375 237.539062 58.042969 C 238.796875 62.785156 244.222656 65.242188 248.882812 64.890625 C 251.875 64.898438 255.269531 62.910156 255.445312 59.746094 Z M 256.464844 42.175781 C 256.578125 39.597656 254.066406 37.40625 251.601562 36.828125 C 246.726562 35.625 240.4375 37.417969 238.527344 42.375 C 238.390625 42.84375 238.347656 43.332031 238.386719 43.816406 C 238.730469 47.28125 242.527344 49.003906 245.683594 49.074219 C 249.84375 49.257812 254.789062 47.464844 256.246094 43.300781 C 256.378906 42.917969 256.449219 42.542969 256.464844 42.175781 Z M 240.460938 69.984375 C 240.496094 65.511719 236.195312 62.148438 232.011719 61.421875 C 229.015625 60.621094 224.839844 61.9375 224.363281 65.335938 C 224.09375 70.101562 229.035156 73.707031 233.46875 74.148438 C 236.390625 74.652344 240.074219 73.195312 240.460938 69.984375 Z M 242.144531 30.925781 C 242.292969 29.03125 241.269531 27.089844 239.359375 26.335938 C 234.242188 24.324219 227.386719 27.183594 225.910156 32.566406 C 225.359375 34.816406 226.996094 36.941406 229.09375 37.652344 C 233.582031 39.164062 239.054688 37.070312 241.417969 33.054688 C 241.851562 32.402344 242.089844 31.667969 242.144531 30.925781 Z M 231.390625 50.25 C 231.636719 46.535156 229.984375 42.628906 227.300781 40.027344 C 224.160156 37.199219 220.441406 34.804688 216.308594 33.683594 C 213.363281 32.460938 209.734375 34.515625 209.496094 37.691406 C 209.125 41.503906 211.558594 44.972656 211.496094 48.789062 C 211.773438 52.046875 209.871094 54.816406 208.558594 57.636719 C 207.316406 60.03125 207.492188 63.46875 210.101562 64.917969 C 212.78125 66.097656 215.8125 64.839844 218.335938 63.800781 C 222.464844 61.609375 226.808594 59.253906 229.5625 55.382812 C 230.695312 53.832031 231.269531 52.0625 231.390625 50.25 Z M 231.390625 50.25 " fill-opacity="1" fill-rule="nonzero"/></g></g></g><g clip-path="url(#2898175caf)"><g clip-path="url(#5eb5581cb0)"><g clip-path="url(#442eb944de)"><path fill="#ffcc00" d="M 363.351562 76.828125 C 363.359375 76.722656 363.359375 76.617188 363.359375 76.515625 C 362.917969 72.324219 358.628906 69.738281 354.734375 69.140625 C 351.210938 68.410156 346.53125 69.640625 345.46875 73.433594 C 345.324219 73.984375 345.332031 74.566406 345.445312 75.125 C 346.703125 79.863281 352.128906 82.320312 356.789062 81.972656 C 359.78125 81.980469 363.175781 79.992188 363.351562 76.828125 Z M 364.371094 59.257812 C 364.484375 56.675781 361.972656 54.488281 359.507812 53.910156 C 354.632812 52.707031 348.34375 54.496094 346.433594 59.457031 C 346.296875 59.921875 346.253906 60.414062 346.292969 60.898438 C 346.636719 64.363281 350.433594 66.082031 353.589844 66.15625 C 357.75 66.339844 362.695312 64.546875 364.15625 60.378906 C 364.285156 60 364.355469 59.625 364.371094 59.257812 Z M 348.367188 87.066406 C 348.402344 82.59375 344.101562 79.226562 339.917969 78.503906 C 336.921875 77.703125 332.746094 79.019531 332.269531 82.417969 C 332 87.183594 336.941406 90.789062 341.375 91.230469 C 344.296875 91.734375 347.980469 90.273438 348.367188 87.066406 Z M 350.050781 48.007812 C 350.199219 46.113281 349.175781 44.171875 347.261719 43.414062 C 342.144531 41.402344 335.292969 44.265625 333.816406 49.648438 C 333.265625 51.898438 334.902344 54.019531 337 54.734375 C 341.488281 56.246094 346.960938 54.152344 349.324219 50.136719 C 349.757812 49.484375 349.996094 48.75 350.050781 48.007812 Z M 339.296875 67.332031 C 339.542969 63.617188 337.890625 59.710938 335.207031 57.109375 C 332.066406 54.28125 328.347656 51.886719 324.214844 50.761719 C 321.269531 49.542969 317.640625 51.597656 317.402344 54.773438 C 317.027344 58.585938 319.464844 62.054688 319.402344 65.867188 C 319.679688 69.128906 317.777344 71.898438 316.460938 74.71875 C 315.222656 77.113281 315.398438 80.550781 318.003906 81.996094 C 320.6875 83.179688 323.714844 81.921875 326.238281 80.878906 C 330.371094 78.6875 334.714844 76.335938 337.46875 72.464844 C 338.597656 70.914062 339.175781 69.144531 339.296875 67.332031 Z M 339.296875 67.332031 " fill-opacity="1" fill-rule="nonzero"/></g></g></g><g clip-path="url(#bccfe0d9ce)"><g clip-path="url(#c232cfdfae)"><g clip-path="url(#6e3ec513fa)"><path fill="#ffcc00" d="M 299.613281 116.410156 C 299.617188 116.304688 299.621094 116.199219 299.621094 116.097656 C 299.179688 111.90625 294.890625 109.320312 290.992188 108.722656 C 287.46875 107.992188 282.792969 109.222656 281.730469 113.015625 C 281.585938 113.566406 281.59375 114.148438 281.707031 114.707031 C 282.964844 119.445312 288.390625 121.902344 293.050781 121.554688 C 296.042969 121.5625 299.433594 119.574219 299.613281 116.410156 Z M 300.632812 98.839844 C 300.746094 96.257812 298.230469 94.070312 295.769531 93.492188 C 290.890625 92.289062 284.605469 94.078125 282.695312 99.039062 C 282.554688 99.503906 282.511719 99.996094 282.554688 100.480469 C 282.898438 103.945312 286.695312 105.664062 289.851562 105.738281 C 294.007812 105.921875 298.953125 104.128906 300.414062 99.960938 C 300.546875 99.582031 300.617188 99.207031 300.632812 98.839844 Z M 284.625 126.648438 C 284.664062 122.175781 280.359375 118.808594 276.179688 118.085938 C 273.179688 117.285156 269.007812 118.601562 268.527344 122 C 268.261719 126.765625 273.203125 130.371094 277.636719 130.8125 C 280.554688 131.316406 284.242188 129.855469 284.625 126.648438 Z M 286.3125 87.589844 C 286.460938 85.695312 285.4375 83.753906 283.523438 82.996094 C 278.40625 80.984375 271.554688 83.847656 270.078125 89.230469 C 269.523438 91.480469 271.164062 93.601562 273.261719 94.316406 C 277.746094 95.828125 283.222656 93.734375 285.582031 89.71875 C 286.015625 89.066406 286.253906 88.332031 286.3125 87.589844 Z M 275.558594 106.914062 C 275.804688 103.199219 274.152344 99.292969 271.46875 96.691406 C 268.328125 93.863281 264.609375 91.46875 260.476562 90.34375 C 257.53125 89.125 253.902344 91.179688 253.660156 94.355469 C 253.289062 98.167969 255.726562 101.636719 255.664062 105.449219 C 255.9375 108.710938 254.039062 111.480469 252.722656 114.300781 C 251.484375 116.695312 251.65625 120.132812 254.265625 121.578125 C 256.945312 122.761719 259.976562 121.503906 262.5 120.460938 C 266.632812 118.269531 270.976562 115.917969 273.726562 112.046875 C 274.859375 110.496094 275.433594 108.726562 275.558594 106.914062 Z M 275.558594 106.914062 " fill-opacity="1" fill-rule="nonzero"/></g></g></g><g clip-path="url(#0e9d0934e2)"><g clip-path="url(#afda64e27c)"><g clip-path="url(#81be4cf842)"><path fill="#ffcc00" d="M 192.15625 107.886719 C 192.160156 107.785156 192.164062 107.679688 192.160156 107.574219 C 191.722656 103.382812 187.433594 100.800781 183.535156 100.199219 C 180.011719 99.472656 175.335938 100.699219 174.273438 104.492188 C 174.128906 105.042969 174.136719 105.628906 174.25 106.183594 C 175.507812 110.925781 180.933594 113.382812 185.589844 113.03125 C 188.585938 113.039062 191.976562 111.050781 192.15625 107.886719 Z M 193.175781 90.316406 C 193.289062 87.738281 190.777344 85.546875 188.3125 84.96875 C 183.433594 83.765625 177.148438 85.558594 175.238281 90.515625 C 175.101562 90.984375 175.054688 91.472656 175.097656 91.957031 C 175.441406 95.421875 179.238281 97.144531 182.394531 97.214844 C 186.550781 97.398438 191.496094 95.605469 192.957031 91.441406 C 193.089844 91.058594 193.160156 90.683594 193.175781 90.316406 Z M 177.167969 118.125 C 177.203125 113.652344 172.902344 110.289062 168.722656 109.5625 C 165.722656 108.761719 161.550781 110.078125 161.070312 113.476562 C 160.804688 118.246094 165.746094 121.847656 170.179688 122.289062 C 173.097656 122.792969 176.785156 121.332031 177.167969 118.125 Z M 178.855469 79.066406 C 179.003906 77.171875 177.980469 75.230469 176.066406 74.476562 C 170.949219 72.460938 164.09375 75.324219 162.621094 80.707031 C 162.066406 82.957031 163.707031 85.082031 165.804688 85.792969 C 170.289062 87.304688 175.765625 85.210938 178.125 81.195312 C 178.558594 80.542969 178.796875 79.808594 178.855469 79.066406 Z M 168.097656 98.390625 C 168.347656 94.675781 166.695312 90.769531 164.011719 88.167969 C 160.871094 85.339844 157.152344 82.945312 153.019531 81.824219 C 150.074219 80.605469 146.445312 82.65625 146.203125 85.832031 C 145.832031 89.644531 148.269531 93.113281 148.203125 96.925781 C 148.480469 100.1875 146.578125 102.957031 145.265625 105.777344 C 144.023438 108.171875 144.199219 111.609375 146.808594 113.058594 C 149.488281 114.238281 152.519531 112.980469 155.042969 111.941406 C 159.175781 109.75 163.519531 107.394531 166.269531 103.523438 C 167.402344 101.972656 167.976562 100.207031 168.097656 98.390625 Z M 168.097656 98.390625 " fill-opacity="1" fill-rule="nonzero"/></g></g></g><g clip-path="url(#a482fe6fc6)"><g clip-path="url(#d1c2f3d703)"><g clip-path="url(#a247a83b84)"><path fill="#ffcc00" d="M 82.242188 59.136719 C 82.226562 59.066406 82.210938 58.996094 82.191406 58.925781 C 81.160156 56.167969 77.808594 55.167969 75.070312 55.445312 C 72.558594 55.566406 69.609375 57.214844 69.554688 59.964844 C 69.550781 60.363281 69.660156 60.757812 69.832031 61.113281 C 71.511719 64.101562 75.609375 64.816406 78.699219 63.761719 C 80.726562 63.246094 82.675781 61.308594 82.242188 59.136719 Z M 79.863281 47.078125 C 79.488281 45.3125 77.40625 44.273438 75.640625 44.308594 C 72.128906 44.351562 68.191406 46.660156 67.765625 50.347656 C 67.753906 50.6875 67.808594 51.023438 67.921875 51.347656 C 68.761719 53.628906 71.628906 54.128906 73.777344 53.628906 C 76.621094 53.023438 79.652344 50.949219 79.910156 47.875 C 79.933594 47.59375 79.914062 47.328125 79.863281 47.078125 Z M 73.894531 68.679688 C 73.136719 65.648438 69.640625 64.125 66.6875 64.363281 C 64.519531 64.347656 61.925781 65.964844 62.195312 68.347656 C 62.847656 71.617188 66.816406 73.195312 69.894531 72.71875 C 71.957031 72.550781 74.195312 70.917969 73.894531 68.679688 Z M 68.214844 41.972656 C 67.984375 40.664062 66.949219 39.527344 65.527344 39.351562 C 61.714844 38.886719 57.578125 42.015625 57.519531 45.914062 C 57.539062 47.535156 59.015625 48.683594 60.558594 48.800781 C 63.859375 49.039062 67.195312 46.667969 68.089844 43.535156 C 68.269531 43.019531 68.304688 42.480469 68.214844 41.972656 Z M 64.3125 56.917969 C 63.832031 54.363281 62.03125 52.007812 59.761719 50.71875 C 57.144531 49.355469 54.210938 48.382812 51.222656 48.347656 C 49.015625 48.035156 46.917969 50.058594 47.3125 52.25 C 47.726562 54.894531 49.980469 56.8125 50.605469 59.402344 C 51.359375 61.558594 50.558594 63.765625 50.164062 65.902344 C 49.742188 67.738281 50.460938 70.03125 52.476562 70.554688 C 54.496094 70.886719 56.324219 69.503906 57.851562 68.363281 C 60.261719 66.15625 62.789062 63.808594 63.972656 60.707031 C 64.46875 59.464844 64.546875 58.167969 64.3125 56.917969 Z M 64.3125 56.917969 " fill-opacity="1" fill-rule="nonzero"/></g></g></g><g clip-path="url(#ca272608c3)"><g clip-path="url(#947a1082e0)"><g clip-path="url(#e4f65d0b5b)"><path fill="#ffcc00" d="M 158.203125 51.84375 C 158.1875 51.773438 158.171875 51.703125 158.152344 51.632812 C 157.121094 48.875 153.769531 47.875 151.03125 48.152344 C 148.519531 48.273438 145.570312 49.921875 145.515625 52.671875 C 145.511719 53.070312 145.621094 53.464844 145.792969 53.820312 C 147.472656 56.808594 151.570312 57.519531 154.660156 56.46875 C 156.6875 55.953125 158.632812 54.015625 158.199219 51.84375 Z M 155.824219 39.785156 C 155.449219 38.019531 153.367188 36.976562 151.597656 37.015625 C 148.089844 37.054688 144.152344 39.363281 143.726562 43.050781 C 143.714844 43.390625 143.769531 43.730469 143.882812 44.050781 C 144.71875 46.335938 147.589844 46.835938 149.738281 46.332031 C 152.582031 45.730469 155.613281 43.65625 155.871094 40.582031 C 155.894531 40.300781 155.875 40.035156 155.824219 39.785156 Z M 149.855469 61.386719 C 149.097656 58.355469 145.601562 56.832031 142.644531 57.070312 C 140.480469 57.054688 137.886719 58.671875 138.15625 61.054688 C 138.808594 64.324219 142.777344 65.898438 145.855469 65.425781 C 147.917969 65.253906 150.15625 63.625 149.855469 61.386719 Z M 144.175781 34.675781 C 143.941406 33.371094 142.910156 32.234375 141.484375 32.058594 C 137.671875 31.589844 133.539062 34.722656 133.480469 38.621094 C 133.5 40.238281 134.976562 41.390625 136.519531 41.503906 C 139.820312 41.746094 143.15625 39.371094 144.050781 36.242188 C 144.230469 35.726562 144.265625 35.1875 144.171875 34.675781 Z M 140.273438 49.625 C 139.792969 47.066406 137.992188 44.714844 135.722656 43.425781 C 133.105469 42.0625 130.171875 41.089844 127.183594 41.054688 C 124.976562 40.742188 122.878906 42.765625 123.273438 44.953125 C 123.6875 47.597656 125.941406 49.519531 126.5625 52.109375 C 127.320312 54.265625 126.519531 56.46875 126.121094 58.609375 C 125.699219 60.445312 126.421875 62.738281 128.4375 63.261719 C 130.457031 63.589844 132.285156 62.210938 133.808594 61.066406 C 136.222656 58.863281 138.75 56.515625 139.933594 53.414062 C 140.429688 52.167969 140.507812 50.871094 140.273438 49.625 Z M 140.273438 49.625 " fill-opacity="1" fill-rule="nonzero"/></g></g></g><g clip-path="url(#c846535d0b)"><g clip-path="url(#abba6d9bb7)"><g clip-path="url(#9b2eba4dcf)"><path fill="#ffcc00" d="M 122.007812 89.746094 C 121.992188 89.675781 121.976562 89.605469 121.957031 89.535156 C 120.925781 86.777344 117.574219 85.777344 114.835938 86.050781 C 112.324219 86.175781 109.378906 87.824219 109.320312 90.574219 C 109.316406 90.972656 109.425781 91.367188 109.597656 91.722656 C 111.277344 94.707031 115.375 95.421875 118.46875 94.371094 C 120.492188 93.855469 122.441406 91.917969 122.007812 89.746094 Z M 119.628906 77.6875 C 119.253906 75.921875 117.171875 74.878906 115.40625 74.917969 C 111.894531 74.957031 107.957031 77.265625 107.53125 80.953125 C 107.519531 81.292969 107.574219 81.632812 107.6875 81.953125 C 108.527344 84.238281 111.394531 84.738281 113.542969 84.234375 C 116.386719 83.632812 119.417969 81.554688 119.675781 78.484375 C 119.699219 78.203125 119.679688 77.9375 119.628906 77.6875 Z M 113.660156 99.289062 C 112.902344 96.257812 109.40625 94.734375 106.453125 94.972656 C 104.285156 94.957031 101.691406 96.574219 101.960938 98.957031 C 102.613281 102.226562 106.585938 103.800781 109.660156 103.324219 C 111.722656 103.15625 113.960938 101.527344 113.660156 99.289062 Z M 107.980469 72.578125 C 107.746094 71.273438 106.714844 70.136719 105.289062 69.960938 C 101.480469 69.492188 97.34375 72.625 97.285156 76.523438 C 97.304688 78.140625 98.785156 79.292969 100.328125 79.40625 C 103.625 79.644531 106.960938 77.273438 107.859375 74.144531 C 108.039062 73.628906 108.070312 73.089844 107.980469 72.578125 Z M 104.078125 87.527344 C 103.597656 84.96875 101.796875 82.617188 99.527344 81.324219 C 96.910156 79.960938 93.980469 78.992188 90.988281 78.953125 C 88.78125 78.644531 86.6875 80.667969 87.078125 82.855469 C 87.492188 85.5 89.746094 87.421875 90.371094 90.011719 C 91.125 92.167969 90.324219 94.371094 89.929688 96.507812 C 89.507812 98.347656 90.226562 100.640625 92.242188 101.164062 C 94.261719 101.492188 96.089844 100.113281 97.617188 98.96875 C 100.027344 96.765625 102.554688 94.414062 103.738281 91.316406 C 104.234375 90.070312 104.316406 88.773438 104.078125 87.527344 Z M 104.078125 87.527344 " fill-opacity="1" fill-rule="nonzero"/></g></g></g><g clip-path="url(#65b92878e7)"><g clip-path="url(#6dd3dd6987)"><g clip-path="url(#6f6b052f8f)"><path fill="#ffcc00" d="M 47.84375 102.75 C 47.832031 102.679688 47.8125 102.609375 47.792969 102.539062 C 46.765625 99.78125 43.414062 98.78125 40.675781 99.054688 C 38.164062 99.179688 35.214844 100.828125 35.160156 103.578125 C 35.15625 103.976562 35.265625 104.367188 35.4375 104.726562 C 37.117188 107.710938 41.214844 108.425781 44.304688 107.375 C 46.332031 106.859375 48.277344 104.921875 47.84375 102.75 Z M 45.464844 90.6875 C 45.09375 88.925781 43.011719 87.882812 41.242188 87.921875 C 37.734375 87.960938 33.796875 90.269531 33.371094 93.957031 C 33.359375 94.296875 33.414062 94.636719 33.527344 94.957031 C 34.363281 97.238281 37.234375 97.738281 39.378906 97.238281 C 42.222656 96.636719 45.253906 94.558594 45.515625 91.488281 C 45.539062 91.207031 45.519531 90.941406 45.464844 90.6875 Z M 39.496094 112.292969 C 38.742188 109.261719 35.246094 107.734375 32.289062 107.976562 C 30.121094 107.957031 27.53125 109.578125 27.800781 111.960938 C 28.449219 115.230469 32.421875 116.804688 35.5 116.328125 C 37.558594 116.160156 39.796875 114.527344 39.496094 112.292969 Z M 33.816406 85.582031 C 33.585938 84.277344 32.554688 83.140625 31.128906 82.964844 C 27.316406 82.496094 23.179688 85.628906 23.125 89.527344 C 23.144531 91.144531 24.621094 92.296875 26.164062 92.410156 C 29.464844 92.648438 32.800781 90.277344 33.695312 87.148438 C 33.875 86.632812 33.90625 86.09375 33.816406 85.582031 Z M 29.917969 100.527344 C 29.4375 97.972656 27.636719 95.621094 25.367188 94.328125 C 22.75 92.964844 19.816406 91.996094 16.824219 91.957031 C 14.621094 91.648438 12.523438 93.671875 12.917969 95.859375 C 13.332031 98.503906 15.585938 100.425781 16.207031 103.015625 C 16.964844 105.171875 16.160156 107.375 15.765625 109.511719 C 15.34375 111.347656 16.0625 113.644531 18.082031 114.167969 C 20.097656 114.496094 21.929688 113.117188 23.453125 111.972656 C 25.863281 109.769531 28.394531 107.417969 29.578125 104.320312 C 30.070312 103.074219 30.152344 101.777344 29.917969 100.527344 Z M 29.917969 100.527344 " fill-opacity="1" fill-rule="nonzero"/></g></g></g></svg>